<svg width="39" height="38" viewBox="0 0 39 38" fill="none" xmlns="http://www.w3.org/2000/svg">
<circle cx="19.926" cy="19" r="18.625" stroke="#F79E0E" stroke-width="0.75"/>
<g clip-path="url(#clip0_422_3)">
<path fill-rule="evenodd" clip-rule="evenodd" d="M16.9099 9.84388C17.8385 9.80113 18.1346 9.79163 20.5001 9.79163C22.8656 9.79163 23.1617 9.80192 24.0895 9.84388C25.0173 9.88583 25.6507 10.0339 26.2048 10.2484C26.7851 10.4677 27.3116 10.8105 27.747 11.2538C28.1903 11.6885 28.5323 12.2141 28.7508 12.7952C28.9662 13.3494 29.1134 13.9827 29.1562 14.909C29.1989 15.8392 29.2084 16.1353 29.2084 18.5C29.2084 20.8655 29.1981 21.1615 29.1562 22.0902C29.1142 23.0164 28.9662 23.6497 28.7508 24.2039C28.5323 24.7851 28.1898 25.3116 27.747 25.7469C27.3116 26.1902 26.7851 26.5322 26.2048 26.7507C25.6507 26.966 25.0173 27.1133 24.0911 27.156C23.1617 27.1988 22.8656 27.2083 20.5001 27.2083C18.1346 27.2083 17.8385 27.198 16.9099 27.156C15.9836 27.1141 15.3503 26.966 14.7961 26.7507C14.215 26.5322 13.6884 26.1896 13.2532 25.7469C12.8101 25.312 12.4673 24.7857 12.2485 24.2047C12.034 23.6505 11.8867 23.0172 11.844 22.091C11.8012 21.1607 11.7917 20.8647 11.7917 18.5C11.7917 16.1345 11.802 15.8384 11.844 14.9105C11.886 13.9827 12.034 13.3494 12.2485 12.7952C12.4676 12.2142 12.8107 11.6879 13.254 11.253C13.6886 10.8101 14.2146 10.4673 14.7953 10.2484C15.3495 10.0339 15.9828 9.88663 16.9091 9.84388H16.9099ZM24.019 11.4114C23.1007 11.3694 22.8252 11.3607 20.5001 11.3607C18.175 11.3607 17.8995 11.3694 16.9811 11.4114C16.1317 11.4502 15.6709 11.5919 15.3637 11.7114C14.9576 11.8698 14.6671 12.0574 14.3623 12.3622C14.0734 12.6432 13.851 12.9854 13.7115 13.3636C13.592 13.6708 13.4503 14.1315 13.4115 14.981C13.3695 15.8993 13.3608 16.1748 13.3608 18.5C13.3608 20.8251 13.3695 21.1006 13.4115 22.0189C13.4503 22.8684 13.592 23.3291 13.7115 23.6363C13.8509 24.0139 14.0733 24.3567 14.3623 24.6378C14.6433 24.9267 14.9861 25.1492 15.3637 25.2885C15.6709 25.408 16.1317 25.5498 16.9811 25.5885C17.8995 25.6305 18.1742 25.6392 20.5001 25.6392C22.826 25.6392 23.1007 25.6305 24.019 25.5885C24.8685 25.5498 25.3292 25.408 25.6364 25.2885C26.0425 25.1302 26.3331 24.9425 26.6379 24.6378C26.9268 24.3567 27.1493 24.0139 27.2886 23.6363C27.4082 23.3291 27.5499 22.8684 27.5887 22.0189C27.6306 21.1006 27.6393 20.8251 27.6393 18.5C27.6393 16.1748 27.6306 15.8993 27.5887 14.981C27.5499 14.1315 27.4082 13.6708 27.2886 13.3636C27.1303 12.9575 26.9427 12.667 26.6379 12.3622C26.3568 12.0733 26.0146 11.8509 25.6364 11.7114C25.3292 11.5919 24.8685 11.4502 24.019 11.4114ZM19.3878 21.1845C20.009 21.4431 20.7007 21.478 21.3447 21.2832C21.9888 21.0885 22.5453 20.6762 22.9191 20.1167C23.2929 19.5573 23.461 18.8854 23.3945 18.2158C23.3279 17.5463 23.031 16.9206 22.5545 16.4456C22.2506 16.142 21.8833 15.9095 21.4788 15.7649C21.0744 15.6203 20.6429 15.5671 20.2155 15.6093C19.788 15.6514 19.3752 15.7878 19.0068 16.0087C18.6384 16.2295 18.3236 16.5293 18.0849 16.8864C17.8463 17.2436 17.6898 17.6491 17.6267 18.074C17.5637 18.4989 17.5956 18.9324 17.7202 19.3435C17.8448 19.7545 18.059 20.1329 18.3473 20.4512C18.6357 20.7695 18.991 21.02 19.3878 21.1845ZM17.335 15.3349C17.7506 14.9192 18.2441 14.5895 18.7872 14.3646C19.3302 14.1396 19.9123 14.0239 20.5001 14.0239C21.0879 14.0239 21.6699 14.1396 22.213 14.3646C22.7561 14.5895 23.2495 14.9192 23.6652 15.3349C24.0808 15.7505 24.4105 16.244 24.6355 16.787C24.8604 17.3301 24.9762 17.9121 24.9762 18.5C24.9762 19.0878 24.8604 19.6698 24.6355 20.2129C24.4105 20.756 24.0808 21.2494 23.6652 21.665C22.8257 22.5045 21.6872 22.9761 20.5001 22.9761C19.3129 22.9761 18.1744 22.5045 17.335 21.665C16.4956 20.8256 16.024 19.6871 16.024 18.5C16.024 17.3128 16.4956 16.1743 17.335 15.3349ZM25.9689 14.6905C26.0719 14.5933 26.1544 14.4765 26.2114 14.3469C26.2684 14.2173 26.2989 14.0775 26.301 13.9359C26.303 13.7944 26.2767 13.6538 26.2234 13.5226C26.1702 13.3914 26.0912 13.2722 25.991 13.1721C25.8909 13.072 25.7717 12.9929 25.6405 12.9397C25.5093 12.8865 25.3688 12.8601 25.2272 12.8622C25.0856 12.8642 24.9459 12.8947 24.8163 12.9517C24.6867 13.0088 24.5698 13.0912 24.4727 13.1942C24.2837 13.3945 24.1802 13.6606 24.1843 13.9359C24.1883 14.2113 24.2994 14.4742 24.4942 14.669C24.6889 14.8637 24.9518 14.9748 25.2272 14.9789C25.5025 14.9829 25.7686 14.8794 25.9689 14.6905Z" fill="#F79E0E"/>
</g>
<defs>
<clipPath id="clip0_422_3">
<rect width="19" height="19" fill="white" transform="translate(11 9)"/>
</clipPath>
</defs>
</svg>
